<svg xmlns="http://www.w3.org/2000/svg" version="1.1" xmlns:xlink="http://www.w3.org/1999/xlink" width="581.0888114386518" height="200" viewBox="0.001395881175994873 12.199999809265137 130.1586151123047 38.23999786376953"><path d="M10.16 38.60C8.64 38.64 7.08 38.48 5.56 37.84C4.04 37.20 2.88 36.20 2.32 34.56C2.04 33.80 1.92 33.04 2.08 32.24C2.16 31.80 2.28 31.36 2.36 30.92C2.72 28.88 3.44 26.96 4.88 25.40C5.24 24.96 5.52 24.44 5.84 24C6.44 23.16 7.12 22.40 7.88 21.68C9.12 20.52 10.52 19.60 12.04 18.72C14 17.60 16 16.52 18.16 15.76C20.24 14.96 22.40 15 24.52 15.52C25.52 15.80 26.36 17.20 26.16 18.24C25.92 19.44 25.60 20.64 24.76 21.68C24.08 22.56 23.44 23.52 22.80 24.44C22.64 24.72 22.60 25.08 22.56 25.40C22.52 25.52 22.60 25.64 22.64 25.72C22.76 25.92 23 26 23.20 25.84C25 24.52 26.12 22.68 27.16 20.80C27.92 19.44 27.96 17.96 27.80 16.48C27.64 15.12 26.28 13.64 24.96 13.36C22.72 12.88 20.40 12.84 18.24 13.64C13.52 15.44 9.16 17.76 5.52 21.44C2.72 24.28 0.88 27.56 0.12 31.48C-0.32 33.68 0.52 35.48 1.72 37.20C1.80 37.28 1.88 37.40 1.96 37.44C3.12 38.16 4.12 39.16 5.56 39.32C8.12 40.24 10.72 40.08 13.32 39.68C15.92 39.28 18.36 38.36 20.84 37.60C21.12 37.52 21.40 36.92 21.20 36.80C21 36.72 20.76 36.56 20.56 36.60C19.16 36.92 17.72 37.36 16.32 37.64C14.32 38.08 12.32 38.68 10.16 38.60ZM31.28 30.40C31.20 30.36 31.12 30.36 31 30.36C30.76 30.36 30.44 30.44 30.32 30.60C29.68 31.36 29.20 31.96 28.88 32.56C28.24 33.64 27.60 34.80 27 35.88C26.44 36.84 25.88 37.88 25.32 38.88C25.24 39.04 25.04 39.16 24.88 39.32C24.84 39.32 24.80 39.36 24.76 39.40C24.76 39.36 24.72 39.32 24.72 39.32C24.64 39.12 24.56 38.92 24.48 38.72C23.92 37.20 24.36 35.80 25.12 34.20C25.60 33.20 26.08 32.20 26.60 31.20C27.04 30.32 27.52 29.40 27.92 28.52C29.60 25.08 30.52 21.16 30.76 16.60L30.76 16.60C30.76 16.36 30.76 16.12 30.76 15.88C30.80 15.32 30.80 14.72 30.72 14.16C30.68 13.76 30.32 13.12 29.92 13.08C29.88 13.08 29.88 13.04 29.84 13.04C29.48 13.04 28.96 13.44 28.76 13.76C28.32 14.44 27.96 15.20 27.68 15.96C25.84 21.52 24.56 26.52 23.76 31.24C23.44 33.16 23 35.16 21.48 36.72C21.08 37.16 20.92 37.52 21 37.84C21.12 38.16 21.44 38.36 22.04 38.48C22.76 38.60 23.12 38.92 23.20 39.56C23.24 39.68 23.24 39.80 23.24 39.92C23.28 40.48 23.36 41.20 24.16 41.20C24.16 41.20 24.20 41.20 24.20 41.20C24.80 41.16 25.40 40.68 25.96 40.24C26 40.20 26.04 40.16 26.08 40.12C26.32 39.92 26.48 39.60 26.64 39.32C26.68 39.20 26.72 39.08 26.80 38.96C26.96 38.68 27.12 38.40 27.28 38.12C27.60 37.52 27.96 36.92 28.28 36.32C28.32 36.28 28.40 36.24 28.48 36.24C28.52 36.24 28.52 36.24 28.52 36.24C28.56 36.24 28.64 36.32 28.64 36.36C28.68 36.52 28.72 36.72 28.72 36.92C28.76 37.16 28.76 37.40 28.80 37.64C28.96 38.36 29.12 39.08 29.40 39.76C29.48 39.96 29.72 40.04 29.96 40.08C30.04 40.12 30.16 40.12 30.20 40.16L30.40 40.24L30.44 40.04C30.44 39.96 30.48 39.88 30.52 39.80C30.60 39.60 30.68 39.36 30.56 39.16C29.60 37.72 30.08 36.36 30.56 34.88C30.64 34.68 30.72 34.48 30.80 34.28C31.12 33.28 31.40 32.32 31.64 31.32C31.72 31.04 31.52 30.56 31.28 30.40ZM25.56 29.68C25.64 29.32 25.68 28.96 25.76 28.60C25.92 27.60 26.12 26.60 26.40 25.64C27.16 22.92 28.04 20.20 28.88 17.56L28.96 17.32C29 17.16 29.16 17 29.32 16.84C29.32 16.80 29.32 16.80 29.32 16.80C29.36 16.96 29.40 17.16 29.44 17.32L29.44 17.60C29.44 17.60 29.44 17.60 29.44 17.64C29.24 21.32 28.28 24.88 26.40 28.84C26.24 29.16 26.08 29.48 25.88 29.72C25.84 29.76 25.72 29.80 25.64 29.84C25.64 29.84 25.60 29.84 25.60 29.84C25.60 29.80 25.56 29.72 25.56 29.68ZM46.44 30.40C46.28 30.36 46.16 30.32 46.04 30.32C45.60 30.36 45.12 30.40 44.68 30.44C42.48 30.68 40.28 30.96 38.04 31.16C37.52 31.20 36.80 31.12 36.48 30.76C35.92 30.20 35.56 30.40 35 30.68C34.28 31.04 34.04 31.60 33.84 32.32C33.32 34.60 32.72 36.88 32.16 39.16C32.12 39.44 32.12 39.72 32.12 40.04C32.52 39.96 33.08 40.08 33.32 39.84C33.68 39.44 33.92 38.88 34.08 38.36C34.60 36.88 35.04 35.44 35.52 34C35.80 33.12 36.32 32.60 37.32 32.56C38.44 32.48 39.60 32.24 40.68 31.96C42.44 31.56 44.16 31.08 45.88 30.60C46.04 30.56 46.20 30.48 46.44 30.40ZM39.24 37.60C39.36 38.40 39.28 38.76 39.44 38.92C39.76 39.36 40.20 40 40.60 40C41.32 40 41.44 39.32 41.32 38.60C40.88 36.68 41.68 35.04 42.64 33.48C42.88 33.12 43.40 32.84 43.44 32.48C43.52 31.84 43.56 30.96 43.20 30.60C42.56 30 41.80 30.52 41.52 31.20C40.64 33.48 39.88 35.76 39.24 37.60ZM46.76 24.96C46.60 24.04 46.64 23.20 46.36 22.52C46.24 22.12 45.60 21.92 45.20 21.64C45 22.04 44.56 22.52 44.64 22.88C44.84 23.68 45.28 24.44 45.72 25.20C45.80 25.32 46.20 25.40 46.40 25.36C46.56 25.28 46.68 25 46.76 24.96ZM51.20 38C51.12 37.64 50.64 37.40 50.12 37.20C49.68 37.04 49.24 36.88 48.80 36.72C48.24 36.52 47.64 36.32 47.08 36.08C46.12 35.64 45.20 35.16 45.16 34.24C45.08 33.24 45.92 32.68 46.76 32.16L46.80 32.16C46.88 32.08 46.96 32.04 47.04 31.96C47.36 31.76 47.68 31.52 47.96 31.52C48.08 31.52 48.20 31.56 48.32 31.68C48.48 31.84 48.44 32.36 48.44 32.76C48.40 32.92 48.40 33.08 48.40 33.24C48.40 33.48 48.36 33.68 48.28 33.96C48.28 34.04 48.24 34.16 48.20 34.28L48.12 34.80L48.48 34.44C48.56 34.36 48.64 34.28 48.76 34.20C48.96 34 49.16 33.80 49.32 33.56C49.56 33.20 49.72 32.80 49.88 32.36C50.12 31.64 49.92 30.96 49.28 30.40C48.96 30.12 48.60 30 48.20 30C47.96 30 47.68 30.04 47.40 30.16C46.12 30.68 45 31.56 43.92 32.92C43.36 33.60 43.32 34.40 43.88 35.08C44.24 35.56 44.64 36.04 45.16 36.36C45.80 36.76 46.48 37.08 47.12 37.40C47.52 37.56 47.88 37.76 48.24 37.96C48.32 38 48.40 38.08 48.48 38.16C48.48 38.20 48.48 38.20 48.48 38.20C48.48 38.20 48.48 38.20 48.48 38.20C48.40 38.24 48.32 38.32 48.28 38.32C47.76 38.40 47.24 38.44 46.76 38.48C46.64 38.52 46.52 38.52 46.36 38.52C46.20 38.52 46 38.48 45.84 38.48C45.56 38.44 45.28 38.44 45.04 38.44C45 38.44 44.92 38.44 44.88 38.44C44.68 38.44 44.04 38.60 44.04 38.88C44 39.28 44.16 39.72 44.28 40C44.32 40.16 44.48 40.16 44.52 40.16C44.64 40.16 44.80 40.12 44.96 40.08C45.04 40.08 45.08 40.08 45.12 40.04C45.32 40.04 45.52 40 45.68 39.96C46.04 39.88 46.36 39.84 46.68 39.80C46.84 39.80 47.04 39.80 47.20 39.80C48.20 39.76 49.28 39.76 50.28 39.20C50.32 39.16 50.40 39.12 50.48 39.08C50.88 38.88 51.40 38.60 51.20 38ZM64 50.44C65.48 50.32 67.16 50.32 68.80 50.04C71.96 49.52 74.88 48.28 77.64 46.64C79.08 45.76 80.32 44.60 81.28 43.20C83.20 40.48 84.20 37.40 84.16 34.04C84.16 32.88 84.20 31.72 83.96 30.60C83.56 28.88 82.96 27.24 82.04 25.72C81.04 24.16 79.80 23 77.92 22.64C77.84 22.64 77.76 22.60 77.68 22.56C77.36 22.44 77.24 21.96 77.48 21.68C78.48 20.32 79.36 18.92 80.24 17.48C80.72 16.72 81 15.92 81.28 15.08C81.56 14.28 81.12 13.24 80.40 12.76C79.88 12.40 79.32 12.20 78.68 12.20C77.80 12.20 76.92 12.28 76.04 12.48C73.52 13 71.12 13.84 68.80 14.88C66.56 15.92 64.48 17.24 62.76 19.12C62.16 19.76 61.72 20.52 61.36 21.32C60.96 22.28 61.48 23.44 62.52 23.92C62.64 24 62.88 23.96 63.00 23.92C63.24 23.84 63.40 23.52 63.32 23.24C63.28 23.08 63.20 22.92 63.12 22.76C62.84 22.24 62.96 21.76 63.24 21.28C64.04 19.88 65.16 18.76 66.48 17.88C69.40 15.92 72.52 14.56 75.92 13.88C76.88 13.68 77.84 13.60 78.80 13.80C79.16 13.88 79.52 14.40 79.44 14.80C79.36 15.16 79.32 15.52 79.20 15.84C78.80 16.60 78.36 17.40 77.88 18.12C75.92 21.24 75.48 22.12 71.84 24.20C70.44 25 69.28 26.08 68.36 27.40C67.52 28.64 66.56 29.80 65.80 31.08C64.92 32.64 63.92 34.08 63.04 35.60C62.48 36.52 62.04 37.44 61.56 38.40C61.48 38.60 61.52 38.92 61.60 39.16C61.96 40.16 62.68 40.28 63.40 39.56C64 39 64.56 38.36 64.48 37.52C64.44 36.56 64.76 35.80 65.28 35.04C65.76 34.32 66.20 33.56 66.72 32.84C67.64 31.56 68.64 30.32 69.52 29C70.80 27 72.56 25.64 74.80 24.84C75.04 24.76 75.28 24.64 75.52 24.52C76.96 23.96 78.64 24.32 79.64 25.48C80.40 26.36 81.08 27.24 81.56 28.32C82.20 29.76 82.60 31.28 82.56 32.92C82.56 33.24 82.56 33.60 82.56 33.96C82.56 35.68 81.96 38.52 81.28 40.12C80.76 41.44 79.92 42.56 79.08 43.72C78.56 44.44 77.96 45.04 77.20 45.56C75.12 47.04 72.68 47.88 70.24 48.64C69.16 49 68.04 49.20 66.88 49.24C64.96 49.36 63.00 49.32 61.08 49.28C59.40 49.28 58.04 48.40 56.60 47.76C56.32 47.64 56.04 47.36 55.84 47.08C54.40 45.40 53.52 43.52 53.88 41.28C53.96 40.84 53.92 40.36 54.12 40C54.80 38.84 55.36 37.64 56.60 36.96C57.36 36.52 58.08 36.04 58.80 35.52C58.88 35.48 58.92 35.20 58.88 35.04C58.80 34.80 58.44 34.60 58.24 34.68C57.04 35.24 55.88 35.88 54.84 36.68C53.96 37.40 53.28 38.36 52.80 39.40C52.24 40.68 52.20 41.96 52.64 43.28C52.96 44.12 53.28 44.92 53.68 45.72C54.20 46.76 54.84 47.72 55.76 48.40C57.04 49.36 58.48 50.08 60.08 50.20C61.32 50.28 62.56 50.36 64 50.44ZM99.12 30.40C98.96 30.36 98.84 30.32 98.72 30.32C98.28 30.36 97.80 30.40 97.36 30.44C95.16 30.68 92.96 30.96 90.72 31.16C90.20 31.20 89.48 31.12 89.16 30.76C88.60 30.20 88.24 30.40 87.68 30.68C86.96 31.04 86.72 31.60 86.52 32.32C86.00 34.60 85.40 36.88 84.84 39.16C84.80 39.44 84.80 39.72 84.80 40.04C85.20 39.96 85.76 40.08 86.00 39.84C86.36 39.44 86.60 38.88 86.76 38.36C87.28 36.88 87.72 35.44 88.20 34C88.48 33.12 89.00 32.60 90.00 32.56C91.12 32.48 92.28 32.24 93.36 31.96C95.12 31.56 96.84 31.08 98.56 30.60C98.72 30.56 98.88 30.48 99.12 30.40ZM96.20 38.88C95.44 38.80 94.80 38.76 94.20 38.60C93.52 38.44 93.28 37.88 93.36 37.16C93.40 36.44 93.88 36.32 94.48 36.36C96.32 36.48 97.80 35.72 98.96 34.32C99.60 33.52 99.76 31.80 99.28 31.04C98.80 30.32 97.60 30.12 96.28 30.60C94.32 31.32 92.84 32.68 91.96 34.56C91.28 35.88 91.20 37.44 92.12 38.76C93.04 40.04 94.52 40.16 95.92 39.88C97.48 39.56 99.00 38.96 100.56 38.44C100.72 38.40 100.88 38.16 101.04 38.04C100.80 38 100.60 37.92 100.36 38C98.96 38.28 97.52 38.60 96.20 38.88ZM98.24 32.40C98.08 33.60 95.84 35.08 94.96 34.72C94.80 34.64 94.56 34.20 94.60 34C94.80 33.24 96.68 31.88 97.52 31.92C97.76 31.92 98.04 32.28 98.24 32.40ZM99.72 37.20C99.72 38.56 99.64 39.48 100.60 39.88C101.56 40.28 102.32 39.76 103.00 39.04C103.40 38.56 103.76 38.08 104.20 37.68C104.56 37.32 105.04 36.84 105.24 37.88C105.28 38.16 105.28 38.52 105.48 38.72C105.72 39 106.12 39.20 106.44 39.40C106.56 39.08 106.88 38.72 106.80 38.44C106.32 36.64 106.88 35 107.36 33.32C107.44 33 107.60 32.68 107.52 32.44C107.44 32.12 107.20 31.72 106.92 31.60C106.68 31.52 106.24 31.80 106.04 32C105.76 32.36 105.68 32.84 105.44 33.24C104.64 34.60 103.84 35.96 102.96 37.24C102.60 37.76 102.24 38.72 101.48 38.24C101.20 38.12 101.40 37.04 101.48 36.40C101.48 36.20 101.68 36 101.80 35.80C102.32 34.56 102.84 33.28 103.40 32.04C103.68 31.44 103.88 30.88 103.20 30.44C102.52 30.04 102.24 30.68 102.00 31.12C100.80 33.16 99.92 35.32 99.72 37.20ZM112.32 38.88C111.56 38.80 110.92 38.76 110.32 38.60C109.64 38.44 109.40 37.88 109.48 37.16C109.52 36.44 110.00 36.32 110.60 36.36C112.44 36.48 113.92 35.72 115.08 34.32C115.72 33.52 115.88 31.80 115.40 31.04C114.92 30.32 113.72 30.12 112.40 30.60C110.44 31.32 108.96 32.68 108.08 34.56C107.40 35.88 107.32 37.44 108.24 38.76C109.16 40.04 110.64 40.16 112.04 39.88C113.60 39.56 115.12 38.96 116.68 38.44C116.84 38.40 117.00 38.16 117.16 38.04C116.92 38 116.72 37.92 116.48 38C115.08 38.28 113.64 38.60 112.32 38.88ZM114.36 32.40C114.20 33.60 111.96 35.08 111.08 34.72C110.92 34.64 110.68 34.20 110.72 34C110.92 33.24 112.80 31.88 113.64 31.92C113.88 31.92 114.16 32.28 114.36 32.40ZM130.16 30.40C130.00 30.36 129.88 30.32 129.76 30.32C129.32 30.36 128.84 30.40 128.40 30.44C126.20 30.68 124.00 30.96 121.76 31.16C121.24 31.20 120.52 31.12 120.20 30.76C119.64 30.20 119.28 30.40 118.72 30.68C118.00 31.04 117.76 31.60 117.56 32.32C117.04 34.60 116.44 36.88 115.88 39.16C115.84 39.44 115.84 39.72 115.84 40.04C116.24 39.96 116.80 40.08 117.04 39.84C117.40 39.44 117.64 38.88 117.80 38.36C118.32 36.88 118.76 35.44 119.24 34C119.52 33.12 120.04 32.60 121.04 32.56C122.16 32.48 123.32 32.24 124.40 31.96C126.16 31.56 127.88 31.08 129.60 30.60C129.76 30.56 129.92 30.48 130.16 30.40Z" fill="black"></path></svg>